<?xml version="1.0" encoding="iso-8859-1"?>
<!-- Generator: Adobe Illustrator 19.2.1, SVG Export Plug-In . SVG Version: 6.00 Build 0)  -->
<svg version="1.1" xmlns="http://www.w3.org/2000/svg" xmlns:xlink="http://www.w3.org/1999/xlink" x="0px" y="0px"
	 viewBox="0 0 32 32" style="enable-background:new 0 0 32 32;" xml:space="preserve">
<g id="Layer_30">
	<path style="fill:#95CC29;" d="M30.379,17.86c-0.36-0.56-0.82-1.06-1.32-1.5c-1.36-1.26-3.12-2.1-5.06-2.3
		c-0.32-0.04-0.66-0.06-1-0.06s-0.68,0.02-1,0.06c-1.94,0.2-3.7,1.04-5.06,2.3c-0.5,0.44-0.96,0.94-1.32,1.5
		c-1.02,1.46-1.62,3.24-1.62,5.14c0,4.76,3.7,8.62,8.4,8.94c0.18,0.04,0.4,0.06,0.6,0.06s0.42-0.02,0.6-0.06
		c4.7-0.32,8.4-4.18,8.4-8.94C31.999,21.1,31.399,19.32,30.379,17.86z M24.959,17.86c0.16,0.3,0.28,0.62,0.4,0.98
		c0.14,0.36,0.24,0.62,0.32,0.94c0.12,0.46,0.2,1.04,0.24,2.22H24v-5.52C24,16.78,24.659,17.24,24.959,17.86z M17.379,18.9
		c0.4-0.6,0.92-1.12,1.5-1.54l0.28-0.2l-0.1,0.26c-0.12,0.26-0.22,0.5-0.32,0.78c-0.14,0.4-0.24,0.72-0.34,1.08
		c-0.16,0.68-0.26,1.42-0.32,2.72h-1.98C16.279,20.86,16.698,19.8,17.379,18.9z M16.099,24h1.96c0.1,2,0.48,3.5,1.12,4.84
		C17.539,27.78,16.399,26,16.099,24z M20.338,19.78c0.18-0.76,0.4-1.36,0.68-1.92l0.041-0.08c0.3-0.58,0.941-1.02,0.941-1.3V22
		h-1.941C20.099,21.12,20.198,20.4,20.338,19.78z M20.078,24H22v5.52c0-0.44-1.001-1.26-1.361-2.36
		C20.319,26.26,20.159,26,20.078,24z M24.939,28.2C24.639,28.8,24,29.24,24,29.52V24h1.938C25.838,26,25.459,27.16,24.939,28.2z
		 M26.838,28.84c0.16-0.34,0.3-0.68,0.42-1.04c0.38-1.12,0.58-1.8,0.66-3.8h1.98C29.599,26,28.479,27.76,26.838,28.84z M27.938,22
		c-0.06-1.02-0.18-1.9-0.38-2.7c-0.16-0.68-0.36-1.3-0.62-1.88l-0.12-0.26l0.28,0.2c0.6,0.42,1.12,0.94,1.54,1.54
		c0.66,0.9,1.08,1.96,1.26,3.1H27.938z"/>
	<path style="fill:#666666;" d="M28.999,0h-26C1.341,0.001,0,1.343,0,3v26c0,1.657,1.341,2.999,2.999,3H16v-2H2.999
		C2.447,29.999,2,29.552,2,29v-7h10v-2H2v-8h28v4h2V3C32,1.343,30.656,0.001,28.999,0z M30,10H2V3c0-0.552,0.447-0.999,0.999-1h26
		C29.55,2.001,30,2.448,30,3V10z"/>
	<rect x="14" y="4" style="fill:#666666;" width="12" height="2"/>
	<circle style="fill:#666666;" cx="7.999" cy="6" r="2"/>
	<circle style="fill:#666666;" cx="7.999" cy="16" r="2"/>
	<circle style="fill:#666666;" cx="7.999" cy="26" r="2"/>
	<rect style="fill:none;" width="32" height="32"/>
</g>
<g id="Layer_1">
</g>
</svg>
